# xmcd
#
# Track frame offsets:
#  150
#  26300
#  36675
#  48625
#  84875
#  99025
#  136800
#  152050
#  176625
#  201400
#  234775
#  245525
#  261100
#  294700
#
# Disc length: 4121 seconds
#
# Revision: 0
# Processed by: cddbd v1.5.2PL0 Copyright (c) Steve Scherf et al.
# Submitted via: AltoMP3_Maker 3.0
#
DISCID=b810170e
DTITLE=Larry McWhorter - The Most Requested Poetry of Larry McWhorter
DYEAR=1900
DGENRE=
TTITLE0=Waitin' on the Drive
TTITLE1=Ode to the Calf Cradle
TTITLE2=He Rode for the Brand
TTITLE3=Black Draught
TTITLE4=The Confrontation
TTITLE5=The Red Cow
TTITLE6=Cowboy Count Yer Blessin's
TTITLE7=The Retirement of Ashtola
TTITLE8=New Ropes and Skint Noses
TTITLE9=Jonny Clare
TTITLE10=Drip Coffee
TTITLE11=Private Thoughts
TTITLE12=Wheat Pasture Dreamin'
TTITLE13=Advice to the Traveler
EXTD=
EXTT0=
EXTT1=
EXTT2=
EXTT3=
EXTT4=
EXTT5=
EXTT6=
EXTT7=
EXTT8=
EXTT9=
EXTT10=
EXTT11=
EXTT12=
EXTT13=
PLAYORDER=
